<svg id="Слой_1" data-name="Слой 1" xmlns="http://www.w3.org/2000/svg" xmlns:xlink="http://www.w3.org/1999/xlink" viewBox="0 0 633.3 108.41"><defs><style>.cls-1{fill:url(#Безымянный_градиент_2);}.cls-2{fill:#bf846e;}</style><linearGradient id="Безымянный_градиент_2" x1="122.7" y1="261.23" x2="200.76" y2="261.23" gradientUnits="userSpaceOnUse"><stop offset="0" stop-color="#f8b99b"/><stop offset="1" stop-color="#bf846e"/></linearGradient></defs><title>лого</title><path class="cls-1" d="M192.8,262.34h8v27.52l-39,25.57L122.7,290V230.39h54.17v8l-46.22,0V285.9l31.07,19.29,31.08-19.31V270.3H162.52v-8ZM146.58,215h30.29v7.42h8V207H141.7v0h-3.08v15.38h8Zm0,55.32v-24h-8v24Zm49.72-39.91H184.83v8h8v16h8v-24Z" transform="translate(-122.7 -207.02)"/><path class="cls-2" d="M254.56,289.75h-3.88c-10.41,0-15.52-5.77-15.52-16.37V255.31c0-10.59,5.11-16.36,15.52-16.36h3.88V231h10.22V239h3.87c10.41,0,15.52,5.77,15.52,16.36v18.07c0,10.6-5.11,16.37-15.52,16.37h-3.87v7.48H254.56Zm0-41.63h-3.88c-3.31,0-5.21,1.8-5.21,6.53v19.4c0,4.73,1.9,6.62,5.21,6.62h3.88Zm10.22,0v32.55h3.87c3.32,0,5.21-1.89,5.21-6.62v-19.4c0-4.73-1.89-6.53-5.21-6.53Z" transform="translate(-122.7 -207.02)"/><path class="cls-2" d="M291.26,246.89c0-10.59,5.58-16.65,15.8-16.65s15.8,6.06,15.8,16.65v34.44c0,10.6-5.59,16.65-15.8,16.65s-15.8-6.05-15.8-16.65Zm10.4,35.1c0,4.73,2.08,6.53,5.4,6.53s5.39-1.8,5.39-6.53V246.23c0-4.73-2.08-6.53-5.39-6.53s-5.4,1.8-5.4,6.53Z" transform="translate(-122.7 -207.02)"/><path class="cls-2" d="M361.36,247.37V256c0,10.59-5.11,16.36-15.52,16.36h-4.92v24.89H330.51V231h15.33C356.25,231,361.36,236.77,361.36,247.37Zm-20.44-6.91v22.42h4.92c3.31,0,5.11-1.51,5.11-6.24V246.7c0-4.73-1.8-6.24-5.11-6.24Z" transform="translate(-122.7 -207.02)"/><path class="cls-2" d="M377.53,297.23H367.12V231H400v66.23h-10.6V240.46H377.53Z" transform="translate(-122.7 -207.02)"/><path class="cls-2" d="M407.61,246.89c0-10.59,5.58-16.65,15.8-16.65s15.8,6.06,15.8,16.65v34.44c0,10.6-5.59,16.65-15.8,16.65s-15.8-6.05-15.8-16.65ZM418,282c0,4.73,2.08,6.53,5.4,6.53s5.39-1.8,5.39-6.53V246.23c0-4.73-2.08-6.53-5.39-6.53s-5.4,1.8-5.4,6.53Z" transform="translate(-122.7 -207.02)"/><path class="cls-2" d="M477,272.53v8.8c0,10.6-5.29,16.65-15.51,16.65S446,291.93,446,281.33V246.89c0-10.59,5.3-16.65,15.52-16.65S477,236.3,477,246.89v6.44H467.2v-7.1c0-4.73-2.08-6.53-5.39-6.53s-5.39,1.8-5.39,6.53V282c0,4.73,2.08,6.44,5.39,6.44s5.39-1.71,5.39-6.44v-9.46Z" transform="translate(-122.7 -207.02)"/><path class="cls-2" d="M481.29,231h32.17v9.46H502.58v56.77H492.17V240.46H481.29Z" transform="translate(-122.7 -207.02)"/><path class="cls-2" d="M534.64,297.23V231h27.44v9.46h-17v56.77Z" transform="translate(-122.7 -207.02)"/><path class="cls-2" d="M603.7,297.23H593.2l-1.8-12H578.63l-1.8,12h-9.55L577.88,231h15.23Zm-23.74-21h10l-5-33.49Z" transform="translate(-122.7 -207.02)"/><path class="cls-2" d="M640.31,247.37V256c0,10.59-5.11,16.36-15.51,16.36h-4.92v24.89H609.47V231H624.8C635.2,231,640.31,236.77,640.31,247.37Zm-20.43-6.91v22.42h4.92c3.31,0,5.1-1.51,5.1-6.24V246.7c0-4.73-1.79-6.24-5.1-6.24Z" transform="translate(-122.7 -207.02)"/><path class="cls-2" d="M679.76,297.23h-10.5l-1.8-12H654.69l-1.8,12h-9.56L653.93,231h15.23Zm-23.75-21h10l-5-33.49Z" transform="translate(-122.7 -207.02)"/><path class="cls-2" d="M695.93,297.23H685.52V231h10.41v28.38h11.82V231h10.6v66.23h-10.6V268.84H695.93Z" transform="translate(-122.7 -207.02)"/><path class="cls-2" d="M723.83,231H756v9.46H745.12v56.77H734.71V240.46H723.83Z" transform="translate(-122.7 -207.02)"/></svg>