<svg id="Слой_1" data-name="Слой 1" xmlns="http://www.w3.org/2000/svg" viewBox="0 0 42.4 44.85"><title>часы1</title><path   d="M26.7,30a2.65,2.65,0,0,0,1.9-1.1l7-9.6a.73.73,0,0,0-.4-1,.64.64,0,0,0-.6,0l-9.6,7a2.7,2.7,0,0,0-.6,3.7l.3.3a2.73,2.73,0,0,0,1.9.8Zm-1.3-2.7a1.19,1.19,0,0,1,.5-.9l5.9-4.3L27.5,28a1.05,1.05,0,0,1-.9.5,1.06,1.06,0,0,1-1.2-1.2Z" transform="translate(-4.38 -1.58)"/><path   d="M43.4,16.3h0a18.31,18.31,0,0,0-2.6-3.6l1.6-1.6,1.1,1.1L46.6,9,43.4,5.8,40.2,9l1.1,1.1-1.6,1.6A24.16,24.16,0,0,0,36.1,9H36a19.47,19.47,0,0,0-7.6-2.5v-1h1.1a1.9,1.9,0,0,0,1.9-1.9,1.84,1.84,0,0,0-1.9-1.9H22.8a1.9,1.9,0,0,0-1.9,1.9,1.84,1.84,0,0,0,1.9,1.9h1.1v.9a20,20,0,0,0-2.4.4.78.78,0,0,0-.6.9h0a.87.87,0,0,0,.9.6h0A20.69,20.69,0,0,1,24,7.9l.8-.1h.7V9.3a.7.7,0,0,0,1.4,0V7.8a17.82,17.82,0,0,1,7.8,2.1L34,11.2a.69.69,0,0,0,.3,1c.1.1.2.1.4.1a.55.55,0,0,0,.6-.4l.7-1.3a18.88,18.88,0,0,1,5.8,5.8l-1.3.7a.78.78,0,0,0-.3,1,.82.82,0,0,0,.6.4.6.6,0,0,0,.4-.1l1.3-.7a17.88,17.88,0,0,1,2.1,7.9H43.1a.71.71,0,0,0-.7.8.68.68,0,0,0,.7.7h1.5A17.88,17.88,0,0,1,42.5,35l-1.3-.7a.74.74,0,0,0-.7,1.3l1.3.7A20,20,0,0,1,36,42.1l-.7-1.3a.71.71,0,0,0-1-.3.81.81,0,0,0-.3,1l.7,1.3a17.82,17.82,0,0,1-7.8,2.1V43.3a.71.71,0,0,0-.8-.7.68.68,0,0,0-.7.7h0v1.5a14.87,14.87,0,0,1-3.6-.5.76.76,0,1,0-.3,1.5,23,23,0,0,0,4.5.5h.1a18.79,18.79,0,0,0,9.8-2.7H36a21.25,21.25,0,0,0,7.3-7.3v-.1h0a19.87,19.87,0,0,0,0-20Zm0-8.4,1,1.1-1,1.1L42.3,9Zm-18-1.7V4H22.8c-.2,0-.3-.2-.3-.4a.32.32,0,0,1,.3-.3h6.7c.2,0,.3.2.3.4a.32.32,0,0,1-.3.3H26.9V6.2Z" transform="translate(-4.38 -1.58)"/><path   d="M19.4,12.1H15.7c-.4,0-.7.3-.8.8a.71.71,0,0,0,.8.7h3.7a.68.68,0,0,0,.7-.7h0A.85.85,0,0,0,19.4,12.1Z" transform="translate(-4.38 -1.58)"/><path   d="M19.4,17.4H12a.7.7,0,0,0,0,1.4h7.4a.7.7,0,0,0,0-1.4Z" transform="translate(-4.38 -1.58)"/><path   d="M19.4,22.6H8.2a.68.68,0,0,0-.7.7h0a.85.85,0,0,0,.7.8H19.4a.71.71,0,0,0,.7-.8.68.68,0,0,0-.7-.7Z" transform="translate(-4.38 -1.58)"/><path   d="M19.4,27.8H5.2a.68.68,0,0,0-.7.7h0a.85.85,0,0,0,.7.8H19.3a.71.71,0,0,0,.7-.8.56.56,0,0,0-.6-.7Z" transform="translate(-4.38 -1.58)"/><path   d="M19.4,33H9.7a.68.68,0,0,0-.7.7H9a.85.85,0,0,0,.7.8h9.7a.71.71,0,0,0,.7-.8.68.68,0,0,0-.7-.7Z" transform="translate(-4.38 -1.58)"/><path   d="M19.4,38.2H14.2a.75.75,0,0,0-.1,1.5h5.4a.77.77,0,0,0,.7-.8A1.34,1.34,0,0,0,19.4,38.2Z" transform="translate(-4.38 -1.58)"/></svg>