<svg id="Слой_1" data-name="Слой 1" xmlns="http://www.w3.org/2000/svg" viewBox="0 0 35.45 43.25"><defs><style>.cls-1{stroke-miterlimit:10;stroke-width:0.25px;}</style></defs><title>страховка</title><path     d="M232.4,7.4a4.23,4.23,0,0,1-4.2-4.2.79.79,0,0,0-.8-.8H203.9a.79.79,0,0,0-.8.8,4.23,4.23,0,0,1-4.2,4.2h0a.79.79,0,0,0-.8.8V21.9a24.45,24.45,0,0,0,17.4,23.5h.4A24.45,24.45,0,0,0,233.3,22V8.3a1.06,1.06,0,0,0-.9-.9Zm-.8,14.5a22.41,22.41,0,0,1-16,21.7,22.65,22.65,0,0,1-16-21.7V9.1a5.94,5.94,0,0,0,5-5h22a5.94,5.94,0,0,0,5,5Z" transform="translate(-197.97 -2.28)"/><path     d="M215.6,14.7a7.6,7.6,0,1,0,7.6,7.6h0A7.53,7.53,0,0,0,215.6,14.7Zm0,13.4a5.91,5.91,0,0,1-5.9-5.9,5.85,5.85,0,0,1,5.9-5.9,5.91,5.91,0,0,1,5.9,5.9A5.85,5.85,0,0,1,215.6,28.1Z" transform="translate(-197.97 -2.28)"/><path     d="M219.6,19.9a.91.91,0,0,0-1.2,0h0l-3.6,3.6-1.1-1.1a.82.82,0,0,0-1.2.1.78.78,0,0,0,0,1.1l1.7,1.7a.75.75,0,0,0,1.2,0l4.2-4.2a.91.91,0,0,0,0-1.2Z" transform="translate(-197.97 -2.28)"/></svg>