<svg id="Слой_1" data-name="Слой 1" xmlns="http://www.w3.org/2000/svg" viewBox="0 0 42.35 42.15"><title>инфографика</title><path d="M173.6,23.5H154.8a.43.43,0,0,1-.4-.4V4.3a.9.9,0,0,0-.9-.9h0a21,21,0,0,0-1.2,41.9h1.2a21,21,0,0,0,21-21,.88.88,0,0,0-.9-.8Zm-7,15a19,19,0,0,1-14.5,5.1,19.27,19.27,0,0,1,.5-38.5h0V23.5a1.57,1.57,0,0,0,.9,1.4l15.4,11h0a14.71,14.71,0,0,1-2.3,2.6Zm3.3-4h0l-12.8-9.2h15.7a19.92,19.92,0,0,1-2.9,9.2Z" transform="translate(-132.28 -3.27)"/><path d="M159.1,20.9h14.5a.9.9,0,0,0,.9-.9h0A16.56,16.56,0,0,0,157.9,3.4h0a.9.9,0,0,0-.9.9h0V18.8A2.05,2.05,0,0,0,159.1,20.9Zm-.3-15.8a14.9,14.9,0,0,1,14,14H159.1a.27.27,0,0,1-.3-.3Z" transform="translate(-132.28 -3.27)"/></svg>