<svg id="Слой_1" data-name="Слой 1" xmlns="http://www.w3.org/2000/svg" viewBox="0 0 43.26 43.25"><defs><style>.cls-1{stroke-miterlimit:10;stroke-width:0.25px;}</style></defs><title>договор</title><path    d="M539.3,43.4h28.6a.68.68,0,0,0,.7-.7V24c0-.4-.2-.8-.6-.8s-.8.2-.8.6V41.2a.68.68,0,0,1-.7.7H540.7a.68.68,0,0,1-.7-.7h0V2.5a.68.68,0,0,1,.7-.7h25.8a.68.68,0,0,1,.7.7V6.8c0,.4.2.8.6.8s.8-.2.8-.6V1.1a.68.68,0,0,0-.7-.7H539.3a.68.68,0,0,0-.7.7V42.6A.71.71,0,0,0,539.3,43.4Z" transform="translate(-538.47 -0.28)"/><path    d="M575.5,2.8l-4.7,4.7L546.1,32.2h0c-.1.1-.1.1-.1.2h0l-3,7.1a.62.62,0,0,0,.1.7.71.71,0,0,0,.6.3h.3l7.1-3h0c.1,0,.1-.1.2-.1h0L576,12.7,580.7,8a3.63,3.63,0,0,0-.3-5.1,3.91,3.91,0,0,0-4.9-.1Zm-.2,8.3-3-3,1.2-1.2,3,3Zm-4-2,3,3L550.6,35.8l-3-3ZM544.9,38.5l1.9-4.5,2.6,2.6ZM579.6,6.9l-2,2-3-3,2-2a2.17,2.17,0,0,1,3,0,2.07,2.07,0,0,1,.6,1,2.32,2.32,0,0,1-.6,2Z" transform="translate(-538.47 -0.28)"/><path    d="M562.2,6.8H545a.64.64,0,0,0-.6.8.65.65,0,0,0,.6.6h17.2c.4,0,.8-.2.8-.6s-.2-.8-.6-.8Z" transform="translate(-538.47 -0.28)"/><path    d="M562.9,11.9a.68.68,0,0,0-.7-.7H545a.71.71,0,0,0,0,1.4h17.2a.68.68,0,0,0,.7-.7Z" transform="translate(-538.47 -0.28)"/><path    d="M545,15.4a.71.71,0,0,0,0,1.4h12.9c.4,0,.8-.2.8-.6s-.2-.8-.6-.8H545Z" transform="translate(-538.47 -0.28)"/></svg>