<svg id="Слой_1" data-name="Слой 1" xmlns="http://www.w3.org/2000/svg" viewBox="0 0 41.14 40.98"><defs><style>.cls-1{fill:#ba7a65;stroke:#ba7a65;stroke-miterlimit:10;}</style></defs><title>телефон2</title><path class="cls-1" d="M165.5,104.1l-8.1-5.4a2.36,2.36,0,0,0-3.2.5l-2.4,3a1.09,1.09,0,0,1-1.3.3l-.5-.3c-1.5-.8-3.3-1.8-7.1-5.6s-4.7-5.6-5.5-7.1l-.3-.4a1,1,0,0,1,.3-1.3l3-2.4a2.35,2.35,0,0,0,.5-3.2l-5.4-8.1a2.29,2.29,0,0,0-3.2-.7l-3.4,2a4.42,4.42,0,0,0-2.2,2.8c-1.2,4.4-.3,12.1,11,23.4,9,9,15.7,11.4,20.3,11.4a10.55,10.55,0,0,0,3.1-.4,4.42,4.42,0,0,0,2.8-2.2l2-3.4a1.86,1.86,0,0,0-.4-2.9Zm-.4,2.5-2,3.4a3.54,3.54,0,0,1-2,1.6c-4.1,1.1-11.3.2-22.1-10.6s-11.8-18-10.6-22.1a3.18,3.18,0,0,1,1.6-2l3.4-2a1,1,0,0,1,1.4.3l2.9,4.4,2.5,3.7a1.08,1.08,0,0,1-.2,1.4l-3,2.4a2.33,2.33,0,0,0-.6,3l.2.4a28.81,28.81,0,0,0,5.8,7.4,28.81,28.81,0,0,0,7.4,5.8l.4.3a2.33,2.33,0,0,0,3-.6l2.4-3a1.06,1.06,0,0,1,1.4-.2l8.1,5.4c.2,0,.4.7,0,1Z" transform="translate(-125.8 -72.52)"/></svg>