<svg id="Слой_1" data-name="Слой 1" xmlns="http://www.w3.org/2000/svg" viewBox="0 0 45 45"><defs><style>.cls-1{fill:#ba7a65;stroke:#ba7a65;stroke-miterlimit:10;}</style></defs><title>часы2</title><path class="cls-1" d="M22.5,73.4a22,22,0,1,0,22,22A21.94,21.94,0,0,0,22.5,73.4Zm0,42.5A20.5,20.5,0,1,1,43,95.4h0A20.53,20.53,0,0,1,22.5,115.9Z" transform="translate(0 -72.9)"/><path class="cls-1" d="M23.2,92.5V85a.7.7,0,1,0-1.4,0v7.4a3.16,3.16,0,0,0-2.1,2.1H14.5a.7.7,0,1,0,0,1.4h5.2a2.95,2.95,0,0,0,5.7-1.5,3.06,3.06,0,0,0-2.2-1.9Zm-.7,4.3A1.5,1.5,0,1,1,24,95.3a1.54,1.54,0,0,1-1.5,1.5Z" transform="translate(0 -72.9)"/><path class="cls-1" d="M22.5,80.6a.68.68,0,0,0,.7-.7v-.7a.7.7,0,1,0-1.4,0v.7a.68.68,0,0,0,.7.7Z" transform="translate(0 -72.9)"/><path class="cls-1" d="M22.5,110a.68.68,0,0,0-.7.7h0v.7a.7.7,0,0,0,1.4,0v-.7a.68.68,0,0,0-.7-.7Z" transform="translate(0 -72.9)"/><path class="cls-1" d="M38.6,94.6h-.7a.7.7,0,1,0,0,1.4h.7a.68.68,0,0,0,.7-.7C39.4,94.9,39,94.6,38.6,94.6Z" transform="translate(0 -72.9)"/><path class="cls-1" d="M7.1,94.6H6.4a.68.68,0,0,0-.7.7c-.1.4.3.7.7.7h.7a.7.7,0,0,0,0-1.4Z" transform="translate(0 -72.9)"/><path class="cls-1" d="M33.4,83.4l-.5.5a.67.67,0,0,0,0,1,.73.73,0,0,0,1,0l.5-.5a.69.69,0,0,0-.3-1,.85.85,0,0,0-.7,0Z" transform="translate(0 -72.9)"/><path class="cls-1" d="M11.1,105.7l-.5.5a.67.67,0,0,0,0,1,.72.72,0,0,0,1,0l.5-.5a.71.71,0,0,0-1-1Z" transform="translate(0 -72.9)"/><path class="cls-1" d="M33.9,105.7a.74.74,0,1,0-1.3.7l.3.3.5.5a.73.73,0,0,0,1,0,.67.67,0,0,0,0-1Z" transform="translate(0 -72.9)"/><path class="cls-1" d="M11.6,83.4a.69.69,0,0,0-1,.3.85.85,0,0,0,0,.7l.5.5a.73.73,0,0,0,1,0,.67.67,0,0,0,0-1Z" transform="translate(0 -72.9)"/></svg>