<svg id="Слой_1" data-name="Слой 1" xmlns="http://www.w3.org/2000/svg" viewBox="0 0 50.66 33.35"><defs><style>.cls-1{fill:#ba7a65;stroke:#ba7a65;stroke-miterlimit:10;stroke-width:0.25px;}</style></defs><title>е мейл</title><path class="cls-1" d="M106.9,82.2a2.69,2.69,0,0,0-2.6-2.8h0l-45.2.1a2.34,2.34,0,0,0-1.8.8,3,3,0,0,0-.8,2v27.4a3.18,3.18,0,0,0,.8,2,2.5,2.5,0,0,0,1.8.8h0l45.2-.1a2.76,2.76,0,0,0,2.6-2.8ZM90.1,99.8l11.7,9.8H61.6l11.8-9.8a1.43,1.43,0,0,0,.2-2,1.17,1.17,0,0,0-1.7-.3.1.1,0,0,0-.1.1L59.1,108.2V83.4L81,99.7a1.36,1.36,0,0,0,1.5,0l21.9-16.4V108L91.7,97.5a1.16,1.16,0,0,0-1.7.2l-.1.1A1.28,1.28,0,0,0,90.1,99.8ZM61.9,82.2l39.5-.1L81.7,97Z" transform="translate(-56.38 -79.27)"/></svg>