<svg id="Слой_1" data-name="Слой 1" xmlns="http://www.w3.org/2000/svg" viewBox="0 0 48.06 43.55"><title>отчет</title><path  d="M504.4.4h-31a4.82,4.82,0,0,0-4.9,4.8l-.2,27.3h-6a.86.86,0,0,0-.8.8v3.8a6.58,6.58,0,0,0,6.2,6.6h26.1v-.1c.2,0,.3.1.4.1h0a6.57,6.57,0,0,0,6.5-6.6h0V13.2h7.9a.85.85,0,0,0,.7-.8V5.5A4.83,4.83,0,0,0,504.4.4ZM468.1,42.2h0a5,5,0,0,1-5-5v-3h24.7v3a6.83,6.83,0,0,0,1.9,4.7c.1.1.3.2.4.4Zm31.2-5a5,5,0,0,1-5,5h0a5,5,0,0,1-5-5V33.4a.79.79,0,0,0-.8-.8H469.9l.2-27.3A3.33,3.33,0,0,1,473.4,2h27.4a5.33,5.33,0,0,0-1.5,3.6ZM508,5.6v6.1h-7.1V5.6A3.59,3.59,0,0,1,504.5,2h0A3.63,3.63,0,0,1,508,5.6Z" transform="translate(-461.38 -0.28)"/><path  d="M483.6,6.7a7.6,7.6,0,1,0,7.6,7.6h0A7.53,7.53,0,0,0,483.6,6.7Zm0,13.4a5.91,5.91,0,0,1-5.9-5.9,5.85,5.85,0,0,1,5.9-5.9,5.91,5.91,0,0,1,5.9,5.9A5.85,5.85,0,0,1,483.6,20.1Z" transform="translate(-461.38 -0.28)"/><path  d="M482.9,16.1a.76.76,0,0,0,.5.2h0a.76.76,0,0,0,.5-.2L487,13a.79.79,0,0,0-.1-1.1.67.67,0,0,0-1,0l-2.5,2.5-1-1a.78.78,0,1,0-1.2,1l.1.1Z" transform="translate(-461.38 -0.28)"/><path  d="M493.9,24.5H475.2a.79.79,0,0,0-.8.8h0a.79.79,0,0,0,.8.8h18.7a.79.79,0,0,0,.8-.8h0c-.1-.4-.4-.8-.8-.8Z" transform="translate(-461.38 -0.28)"/><path  d="M493.9,28.1H475.2a.8.8,0,0,0,0,1.6h18.7a.86.86,0,0,0,.8-.8C494.6,28.4,494.3,28.1,493.9,28.1Z" transform="translate(-461.38 -0.28)"/></svg>