<svg id="Слой_1" data-name="Слой 1" xmlns="http://www.w3.org/2000/svg" viewBox="0 0 40.24 40.24"><title>для оценщика</title><path  d="M421.7,15.2" transform="translate(-397.48 -0.37)"/><path  d="M436.6,35.1,426.2,24.7a15.59,15.59,0,1,0-13,7h0a15.28,15.28,0,0,0,8.6-2.6l2.9,2.9h0l7.5,7.5a3.11,3.11,0,0,0,4.5-4.3Zm-15.2-7.7a14.36,14.36,0,0,1-8.2,2.7A14.1,14.1,0,1,1,427.3,16,14.69,14.69,0,0,1,421.4,27.4Zm1.6.7a15.25,15.25,0,0,0,2.2-2.2l2.2,2.2a22.84,22.84,0,0,1-2.2,2.2Zm12.5,10.3a1.57,1.57,0,0,1-2.2,0h0l-7-7a22.84,22.84,0,0,0,2.2-2.2l6.9,6.9a1.6,1.6,0,0,1,.1,2.3Z" transform="translate(-397.48 -0.37)"/><path  d="M413.1,3.5A12.5,12.5,0,1,0,425.6,16h0A12.5,12.5,0,0,0,413.1,3.5Zm0,23.5a11.08,11.08,0,0,1-11-10.9A10.93,10.93,0,0,1,413,5.2a11.08,11.08,0,0,1,11,10.9h0A10.8,10.8,0,0,1,413.1,27Z" transform="translate(-397.48 -0.37)"/><path  d="M421.9,12.7a9.45,9.45,0,0,0-8.8-6,.8.8,0,0,0,0,1.6h0a7.91,7.91,0,0,1,7.3,5,.75.75,0,0,0,.7.5.37.37,0,0,0,.3-.1.88.88,0,0,0,.5-1Z" transform="translate(-397.48 -0.37)"/></svg>