<svg id="Слой_1" data-name="Слой 1" xmlns="http://www.w3.org/2000/svg" viewBox="0 0 31.55 43.55"><title>документы</title><path  d="M364.6,3.1h-6.4a2.16,2.16,0,0,0-2.1-1.5h-2.3a3.67,3.67,0,0,0-5.1-.8,6,6,0,0,0-.8.8h-2.3a2.26,2.26,0,0,0-2.1,1.5h-7.6a.68.68,0,0,0-.7.7h0V42.7a.68.68,0,0,0,.7.7h29.9a.68.68,0,0,0,.7-.7h0V5.1C366.5,3.4,366.2,3.1,364.6,3.1Zm-21,4.4A2.16,2.16,0,0,0,345.7,9h10.5a2.26,2.26,0,0,0,2.1-1.5h4V39H339.7V7.5Zm2-4.5h3a.1.1,0,0,0,.1-.1,2.31,2.31,0,0,1,4.3,0,.1.1,0,0,0,.1.1h3.7a.1.1,0,0,1,.1.1V6.7h0a.86.86,0,0,1-.8.8H345.6a.86.86,0,0,1-.8-.8h0v-3a.86.86,0,0,1,.8-.7Zm19.5,38.3a.68.68,0,0,1-.7.7H337.3a.68.68,0,0,1-.7-.7V5.2a.68.68,0,0,1,.7-.7h6.1V6.1h-5.3V40.4a.1.1,0,0,0,.1.1h25.3V6.2h-5.3V4.6h6.1a.68.68,0,0,1,.7.7h0Z" transform="translate(-335.08 0.02)"/><path  d="M351.6,15.7h4.5a.7.7,0,0,0,0-1.4h-4.5a.7.7,0,0,0,0,1.4Z" transform="translate(-335.08 0.02)"/><path  d="M351.6,18.7h7.5a.71.71,0,0,0,0-1.4h-7.5a.71.71,0,0,0,0,1.4Z" transform="translate(-335.08 0.02)"/><path  d="M344.4,18.5a.73.73,0,0,0,1,0l3.7-3.7a.71.71,0,0,0-1-1L344.8,17l-1.7-1.7a.71.71,0,0,0-1,1Z" transform="translate(-335.08 0.02)"/><path  d="M351.6,23.2h4.5a.7.7,0,0,0,0-1.4h-4.5a.7.7,0,0,0,0,1.4Z" transform="translate(-335.08 0.02)"/><path  d="M351.6,26.2h7.5a.7.7,0,0,0,0-1.4h-7.5a.7.7,0,0,0,0,1.4Z" transform="translate(-335.08 0.02)"/><path  d="M344.4,26a.73.73,0,0,0,1,0l3.7-3.7a.71.71,0,0,0-1-1h0l-3.3,3.2-1.7-1.8a.71.71,0,0,0-1,1Z" transform="translate(-335.08 0.02)"/><path  d="M351.6,30.7h4.5a.7.7,0,0,0,0-1.4h-4.5a.7.7,0,0,0,0,1.4Z" transform="translate(-335.08 0.02)"/><path  d="M351.6,33.7h7.5a.7.7,0,0,0,0-1.4h-7.5a.7.7,0,0,0,0,1.4Z" transform="translate(-335.08 0.02)"/><path  d="M344.4,33.5a.72.72,0,0,0,1,0l3.7-3.7a.71.71,0,0,0-1-1l-3.3,3.3-1.7-1.8a.71.71,0,0,0-1,1Z" transform="translate(-335.08 0.02)"/></svg>