<svg id="Слой_1" data-name="Слой 1" xmlns="http://www.w3.org/2000/svg" viewBox="0 0 29.98 42.85"><defs><style>.cls-1{fill:#ba7a65;stroke:#ba7a65;stroke-miterlimit:10;}</style></defs><title>локация</title><path class="cls-1" d="M193.1,79a5.3,5.3,0,1,0,5.3,5.3A5.27,5.27,0,0,0,193.1,79Zm0,9.1a3.8,3.8,0,1,1,3.8-3.8h0A3.8,3.8,0,0,1,193.1,88.1Z" transform="translate(-178.04 -69.42)"/><path class="cls-1" d="M203.3,74.2a14.43,14.43,0,0,0-20.5,0h0c-5.1,5.1-5.7,14.6-1.4,20.4L193,111.4l11.6-16.8c4.4-5.8,3.7-15.4-1.3-20.4Zm.1,19.5-10.4,15-10.4-15c-3.9-5.2-3.4-13.9,1.2-18.4a13,13,0,0,1,18.4,0c4.6,4.5,5.1,13.1,1.2,18.4Z" transform="translate(-178.04 -69.42)"/></svg>